# xmcd CD database file
#
# Track frame offsets:
#	150
#	13997
#	25329
#	39085
#	52704
#	67530
#	81665
#	93524
#	105870
#	118834
#	132625
#	147067
#	158500
#	172032
#	187944
#	202440
#	214797
#	227361
#
# Disc length: 3198 seconds
#
# Revision: 0
# Processed by: cddbd v1.5.2PL0 Copyright (c) Steve Scherf et al.
# Submitted via: Feurio! 1.61 - http://www.feurio.com
#
DISCID=ec0c7c12
DTITLE=Various Artist - Millenium Collection - Blues Legends -(CD2)
DYEAR=2000
DGENRE=Blues
TTITLE0=John Lee Hooker - Alberta
TTITLE1=Homer Harris - Atomic Bomb Blues
TTITLE2=Mississippi John Hurt - Avalon Blues
TTITLE3=Clarence Williams - A Pane In The Glass
TTITLE4=Louis Armstrong - Back O'town Blues
TTITLE5=John Lee Hooker - Boogie Chillen
TTITLE6=Bukka White - Bukka's Jitterbug Swing
TTITLE7=Little Brother Montgomery - Chinese Man Blues
TTITLE8=Big Bill Broonzy - Guitar Rag
TTITLE9=Willie Dixon - If The Sea Was Whiskey
TTITLE10=Bessie Smith - His Gonna Blues
TTITLE11=Muddy Waters - Little Anna Mea
TTITLE12=Blind Boy Fuller - My Brown Skin Shugar Plum
TTITLE13=Bessie Smith - You've Been A Good Old Wagon
TTITLE14=King Oliver - Snag It
TTITLE15=John Lee Hooker - War Is Over (Goodbye California)
TTITLE16=Christina Gray - The Reverend Is My Man
TTITLE17=Champion Jack Dupree - Warehouse Man Blues
EXTD=Saar -2000\r\n
EXTT0=
EXTT1=
EXTT2=
EXTT3=
EXTT4=
EXTT5=
EXTT6=
EXTT7=
EXTT8=
EXTT9=
EXTT10=
EXTT11=
EXTT12=
EXTT13=
EXTT14=
EXTT15=
EXTT16=
EXTT17=
PLAYORDER=
